<svg xmlns="http://www.w3.org/2000/svg" viewBox="0 0 512 512"><path fill="#0a0a0a" d="M0 0H512V512H0z"/><path fill="none" stroke="#4a5568" stroke-width="8" d="M20 20H492V492H20z" opacity="0.6"/><path fill="none" stroke="#2d3748" stroke-width="4" d="M30 30H482V482H30z" opacity="0.4"/><path stroke="#ff6b00" stroke-width="6" d="M20 20 80 20M20 20 20 80M432 20 492 20M492 20 492 80M20 432 80 432M20 432 20 492M432 492 492 492M492 432 492 492" opacity="0.8"/><text x="256" y="220" fill="#e2e8f0" font-family="Arial, sans-serif" font-size="140" font-weight="900" letter-spacing="8" text-anchor="middle">WIC</text><text x="256" y="340" fill="#ff6b00" font-family="Arial, sans-serif" font-size="100" font-weight="700" letter-spacing="10" text-anchor="middle">GATE</text><text x="256" y="400" fill="#718096" font-family="Arial, sans-serif" font-size="28" font-weight="500" letter-spacing="4" text-anchor="middle">MULTIPLAYER</text><circle cx="256" cy="100" r="12" fill="none" stroke="#ff6b00" stroke-width="3" opacity="0.6"/><path stroke="#ff6b00" stroke-width="2" d="M244 100 268 100M256 88 256 112" opacity="0.6"/></svg>